<svg width="59" height="111" viewBox="0 0 59 111" fill="none" xmlns="http://www.w3.org/2000/svg">
<path fill-rule="evenodd" clip-rule="evenodd" d="M56.8053 0.000391702C56.933 -0.0178378 57.2065 0.601966 57.4801 1.49521C57.7354 2.31554 58.1001 3.73745 58.2824 4.63069C58.483 5.52394 58.7383 7.1646 58.866 8.2766C58.9936 9.46152 59.0301 11.2845 58.9754 12.7428C58.9024 14.0918 58.7201 15.9877 58.556 16.9356C58.3918 17.8836 58.0636 19.3602 57.8083 20.2169C57.5712 21.0737 56.9877 22.7144 56.5318 23.8628C56.0577 25.0113 55.4012 26.4514 55.0547 27.053C54.7083 27.6546 54.1794 28.5661 53.8694 29.0583C53.5594 29.5687 52.9029 30.4984 52.3923 31.1547C51.9 31.8109 50.8423 33.0505 48.6358 35.5297L50.277 37.4074C51.1888 38.4282 52.3741 39.9231 52.9029 40.7252C53.4318 41.5273 54.2888 43.0038 54.7812 44.0065C55.2918 45.0091 55.9847 46.7227 56.3495 47.8347C56.6959 48.9467 57.1518 50.5873 57.3159 51.4806C57.5712 52.7202 57.6442 53.978 57.6442 56.676C57.6442 59.9209 57.5895 60.4313 57.1336 62.4183C56.8418 63.6214 56.3677 65.2621 56.0759 66.0642C55.7842 66.8663 55.2553 68.1424 54.8906 68.8898C54.5259 69.6372 53.9059 70.7857 53.4865 71.4419C53.0853 72.0982 52.2282 73.2831 51.5717 74.0852C50.9335 74.8873 49.8394 76.0904 49.1464 76.7832C48.4717 77.4577 47.2317 78.4967 46.3928 79.1165C45.5722 79.7364 44.4416 80.502 43.8945 80.8119C43.3475 81.14 42.1439 81.7416 41.2504 82.1427C40.3386 82.5437 39.0986 83.0541 38.4603 83.2729C37.8403 83.4734 36.6915 83.8198 35.9074 84.0203C35.1415 84.2208 33.8832 84.4396 31.7679 84.6583L31.8226 85.9344C31.8591 86.6453 32.0414 87.8667 32.242 88.6688C32.4426 89.4709 32.9167 90.6923 33.2814 91.4033C33.6461 92.096 34.1932 93.0074 34.5032 93.4267C34.795 93.846 35.5062 94.6663 36.0532 95.2679C36.6003 95.8695 37.3115 96.8539 37.6397 97.4372C37.9497 98.0206 38.3509 99.0414 38.4968 99.6977C38.6609 100.354 38.7886 101.302 38.7886 101.794C38.7886 102.305 38.6609 103.234 38.4968 103.89C38.3327 104.547 37.9497 105.568 37.6215 106.151C37.3115 106.753 36.6368 107.664 36.1444 108.193C35.6156 108.74 34.6673 109.45 33.865 109.87C33.1173 110.253 32.0596 110.672 31.5308 110.799C31.0202 110.909 30.072 111 29.4337 111C28.8137 111 27.8472 110.872 27.3002 110.727C26.7531 110.581 25.8048 110.216 25.2031 109.924C24.6013 109.633 23.6895 108.977 23.1972 108.503C22.6866 108.01 22.0848 107.281 21.8112 106.898C21.5559 106.497 21.173 105.732 20.9542 105.221C20.7353 104.693 20.48 103.708 20.3706 103.034C20.2612 102.232 20.2612 101.338 20.3889 100.518C20.48 99.7706 20.8083 98.7133 21.1548 97.9659C21.5012 97.2549 22.2854 96.0882 22.9419 95.3226C23.5983 94.5752 24.5283 93.3903 25.0025 92.6793C25.4766 91.9684 26.0237 90.9475 26.2243 90.4006C26.4431 89.8537 26.7166 88.9423 26.8625 88.3954C27.0084 87.8485 27.136 86.7729 27.209 84.6583L25.8413 84.5307C25.0937 84.4396 23.8172 84.2208 23.0148 84.0021C22.2124 83.8015 20.9724 83.4187 20.2795 83.1817C19.5683 82.9265 18.4194 82.4708 17.7265 82.1609C17.0153 81.8327 15.83 81.2129 15.0823 80.7754C14.3347 80.3379 13.0217 79.4265 12.1646 78.7702C11.3075 78.0957 9.97635 76.8925 9.19222 76.0905C8.40809 75.2884 7.22277 73.8482 6.54806 72.9003C5.87334 71.9523 4.97979 70.5122 4.56038 69.7101C4.14096 68.908 3.52095 67.5226 3.15623 66.6111C2.80976 65.6996 2.3721 64.3506 2.17151 63.6032C1.97092 62.8558 1.69739 61.5797 1.56974 60.7776C1.44209 59.9755 1.33268 58.0068 1.33268 56.4026C1.33268 54.4885 1.44209 52.9207 1.64268 51.8452C1.8068 50.9519 2.17151 49.4206 2.46328 48.4727C2.75505 47.5248 3.19271 46.2487 3.83095 44.5534L3.15623 43.1861C2.77329 42.4387 2.15328 40.871 1.77033 39.7225C1.38738 38.5741 0.895022 36.8058 0.69443 35.8032C0.493839 34.8006 0.23854 32.9594 0.110891 31.7015C0.00147776 30.4437 -0.0349934 28.639 0.0379489 27.691C0.0926557 26.7431 0.23854 25.3394 0.329718 24.592C0.439132 23.8446 0.767373 22.2769 1.05914 21.1284C1.35091 19.98 1.69739 18.7586 1.82504 18.4304C1.95269 18.0659 2.17151 17.8471 2.35387 17.8471C2.53623 17.8471 3.6486 18.0659 4.81567 18.3211C6.00099 18.5945 7.82455 19.1414 8.88221 19.5424C9.93988 19.9435 11.4899 20.6362 12.347 21.092C13.204 21.5295 14.5717 22.3316 15.3923 22.8785C16.2312 23.4253 17.5441 24.4097 18.31 25.066C19.0941 25.7223 20.2065 26.7796 20.7901 27.3994C21.3736 28.0009 22.3765 29.1676 22.9966 29.9697C23.6348 30.7718 24.656 32.212 25.2395 33.1599C25.8413 34.1078 26.6619 35.548 27.0631 36.3501C27.4825 37.1522 28.2119 38.9204 28.7225 40.2694C29.2331 41.6184 29.8531 43.5143 30.1084 44.4622C30.3637 45.4101 30.7285 47.142 30.9473 48.2904C31.1479 49.4389 31.3849 51.3347 31.4943 52.4832C31.5855 53.6317 31.6767 60.3401 31.6767 67.395C31.6767 77.4577 31.7314 80.2103 31.8955 80.3015C32.0232 80.3562 33.0261 80.2286 34.1385 80.0098C35.2326 79.791 36.9286 79.3353 37.8768 78.9707C38.8251 78.6244 39.9739 78.1322 40.4298 77.9134C40.8857 77.6764 41.9798 77.0019 42.8916 76.4003C43.7851 75.817 45.244 74.6321 46.1011 73.7935C46.9581 72.955 48.1799 71.5695 48.7999 70.7127C49.4199 69.8559 50.3317 68.3794 50.8058 67.4314C51.2982 66.4835 51.9364 64.9704 52.2464 64.059C52.5382 63.1475 52.9212 61.6344 53.1035 60.6865C53.3406 59.3375 53.3953 58.2802 53.3223 55.9468C53.2676 53.741 53.14 52.4832 52.8482 51.2071C52.6294 50.2592 52.1735 48.7826 51.827 47.9258C51.4806 47.069 50.9335 45.8659 50.6052 45.2461C50.277 44.6263 49.4929 43.3867 48.8729 42.5117C48.2529 41.6366 47.1405 40.3059 45.0799 38.2642L43.8945 39.0298C43.2381 39.4491 41.6333 40.3059 40.3386 40.9257C39.0439 41.5455 37.4939 42.2017 36.9286 42.4023C36.345 42.5846 35.8162 42.6575 35.7432 42.5846C35.6703 42.4934 35.5974 40.7252 35.6156 38.6652C35.6156 35.5844 35.7068 34.4542 36.035 32.5219C36.2721 31.2276 36.655 29.4593 36.9103 28.6025C37.1474 27.7457 37.6397 26.2691 38.0044 25.3212C38.3692 24.3733 39.0621 22.7691 39.5545 21.7664C40.0468 20.7638 40.9951 19.1232 41.6516 18.1205C42.308 17.1179 43.2928 15.7325 43.8581 15.0215C44.4234 14.3106 45.5358 13.0527 46.3381 12.2142C47.1587 11.3756 48.6358 10.0266 49.6388 9.22453C50.6417 8.42243 51.4988 7.72971 51.5535 7.67502C51.6082 7.62034 51.4806 7.63856 51.28 7.71148C51.0794 7.7844 50.2223 8.25837 49.3652 8.7688C48.5082 9.27922 47.0675 10.2454 46.174 10.9381C45.2622 11.6126 43.931 12.7246 43.1834 13.4173C42.4357 14.0918 41.1774 15.4408 40.3751 16.3887C39.5909 17.3367 38.5515 18.6857 38.0774 19.3966C37.6033 20.1076 36.8374 21.3289 36.3632 22.131C35.9074 22.9331 35.2873 24.1181 34.9956 24.7743C34.7038 25.4306 34.1567 26.7796 33.8103 27.7822C33.4456 28.7848 33.0261 30.1338 32.862 30.7901C32.6979 31.4463 32.3879 32.8865 32.2055 33.9802C32.0049 35.0922 31.8591 36.5871 31.8591 37.3162C31.8591 38.0272 31.8043 38.6288 31.7132 38.6288C31.6402 38.6288 31.4214 38.2459 31.239 37.7537C31.0385 37.2798 30.4914 36.0766 29.999 35.074C29.4884 34.0714 28.8137 32.7953 28.4855 32.2484C27.9019 31.3005 27.8655 31.1911 28.0296 30.2432C28.1208 29.6963 28.3031 28.7484 28.449 28.1468C28.5949 27.5452 28.9049 26.3967 29.1237 25.5947C29.3425 24.7926 29.8896 23.1884 30.3455 22.0399C30.7832 20.8914 31.5126 19.2508 31.9502 18.394C32.3879 17.5372 33.4091 15.8601 34.1932 14.6569C34.9773 13.4538 36.2356 11.7767 36.9833 10.9199C37.7309 10.0631 39.0986 8.71411 39.9921 7.91201C40.9039 7.10991 42.381 5.96145 43.2745 5.34164C44.1681 4.74007 45.4263 3.93797 46.0828 3.57338C46.7393 3.22702 48.1617 2.55253 49.274 2.09679C50.3682 1.65928 52.137 1.07593 53.1947 0.82072C54.2524 0.565507 55.4377 0.292064 55.8389 0.200917C56.24 0.0915394 56.6777 0.0186212 56.7871 0.000391702H56.8053ZM9.0281 26.6884C9.9034 27.3994 11.3623 28.7119 12.274 29.6051C13.1676 30.5166 14.3711 31.8292 14.9364 32.5219C15.5017 33.2328 16.5229 34.6183 17.1794 35.6209C17.8541 36.6235 18.8936 38.4282 19.4771 39.6314C20.0789 40.8345 20.8448 42.6028 21.1912 43.5507C21.5195 44.4987 22.0665 46.3034 22.3583 47.5612C22.6683 48.8191 23.0513 50.8425 23.1972 52.0822C23.3613 53.3035 23.4889 55.3999 23.4889 56.7307C23.4889 58.0432 23.4342 59.4104 23.3613 59.7386C23.264 60.1275 23.106 60.3219 22.8871 60.3219C22.723 60.3219 21.9754 60.1031 21.2459 59.8479C20.5348 59.5745 19.1306 58.9729 18.1459 58.4807C17.1794 57.9885 15.9029 57.2776 15.3194 56.913C14.7541 56.5484 13.6235 55.7463 12.8211 55.1447C12.0187 54.5431 10.6511 53.34 9.79399 52.4832C8.93692 51.6264 7.93396 50.5509 7.56925 50.0769C7.20454 49.5847 6.83982 49.2384 6.74865 49.2748C6.6757 49.3113 6.42041 50.2227 6.16511 51.3165C5.76392 53.0483 5.70922 53.741 5.70922 56.5849C5.70922 59.1188 5.78216 60.2125 6.05569 61.4157C6.23805 62.2725 6.60276 63.585 6.83982 64.3324C7.09512 65.0798 7.62396 66.3376 8.0069 67.1215C8.40809 67.8872 8.99162 68.9627 9.3381 69.4914C9.66634 70.0018 10.3228 70.9315 10.8152 71.5331C11.2893 72.1346 12.3105 73.2284 13.0764 73.9576C13.8423 74.6868 15.2464 75.817 16.1947 76.455C17.1429 77.0931 18.4924 77.8769 19.2036 78.2051C19.8965 78.515 21.173 79.0072 22.0301 79.2806C22.8871 79.5723 23.9448 79.8457 24.4007 79.9186C25.2031 80.0098 25.2395 80.0462 26.1331 81.5775C26.6254 82.4343 27.0996 83.127 27.1725 83.1088C27.2637 83.1088 27.3184 76.9837 27.3184 69.4731C27.3184 58.1891 27.2637 55.4911 27.0266 53.6681C26.8807 52.465 26.589 50.6967 26.3701 49.7488C26.1696 48.8008 25.7137 47.1602 25.3854 46.1029C25.0389 45.0456 24.1819 43.0403 23.5072 41.6366C22.8142 40.233 21.7748 38.3918 21.1912 37.535C20.6259 36.6782 19.7871 35.5297 19.3312 34.9829C18.8935 34.436 17.8541 33.2875 17.0518 32.449C16.2312 31.6104 15.0276 30.4619 14.3711 29.8968C13.7146 29.3317 12.4382 28.3655 11.5446 27.764C10.6328 27.1624 9.35634 26.3603 8.68162 25.9775C8.02514 25.6129 7.45983 25.3212 7.45983 25.3577C7.4416 25.3941 8.15279 25.9775 9.0281 26.6884Z" fill="white"/>
</svg>
